<svg width="125" height="38" viewBox="0 0 125 38" fill="none" xmlns="http://www.w3.org/2000/svg">
<path d="M15.8766 27.9746L15.8752 27.976C13.6482 30.1803 10.6808 31.3074 6.94146 31.3346L15.854 11.5077L19.2676 19.11C19.2547 22.8433 18.1166 25.787 15.8766 27.9746ZM30.7083 35.3811H31.1718L30.982 34.9582L16.1278 1.87711L15.8541 1.26762L15.5805 1.87711L0.726323 34.9582L0.536438 35.3811H1H6.8024C10.7482 35.3811 13.9725 34.018 16.4478 31.2852L16.448 31.285C18.6733 28.825 19.9772 25.5811 20.3794 21.5762L26.4889 35.2038L26.5684 35.3811H26.7627H30.7083ZM35.336 1.79769L34.8145 1.22664V2V35.0811V35.3811H35.1145H38.828H39.128V35.0811V12.3312L60.8875 36.2021L61.4092 36.7744V36V2.91892V2.61892H61.1092H57.3957H57.0957V2.91892V25.6239L35.336 1.79769ZM65.7385 2.61892H65.4385V2.91892V6.36487V6.66487H65.7385H77.0433V35.0811V35.3811H77.3433H81.0568H81.3568V35.0811V6.66487H92.6616H92.9616V6.36487V2.91892V2.61892H92.6616H65.7385ZM109.168 27.9746L109.167 27.976C106.94 30.1803 103.972 31.3074 100.233 31.3346L109.146 11.5077L112.559 19.11C112.546 22.8433 111.408 25.7869 109.168 27.9746ZM124 35.3811H124.464L124.274 34.9582L109.42 1.87711L109.146 1.26762L108.872 1.87711L94.018 34.9582L93.8281 35.3811H94.2917H100.094C104.04 35.3811 107.264 34.018 109.74 31.2852L109.74 31.285C111.965 28.825 113.269 25.5811 113.671 21.5762L119.781 35.2038L119.86 35.3811H120.054H124Z" fill="white" stroke="white" stroke-width="0.6"/>
</svg>
