<svg width="16" height="16" viewBox="0 0 16 16" fill="none" xmlns="http://www.w3.org/2000/svg">
<path d="M15.0162 14.1999L1.89747 1.08117C1.68551 0.869212 1.34185 0.869212 1.12989 1.08117C0.917923 1.29314 0.917922 1.63679 1.12988 1.84876L14.2486 14.9674C14.4605 15.1794 14.8042 15.1794 15.0162 14.9674C15.2281 14.7555 15.2281 14.4118 15.0162 14.1999Z" fill="white"/>
<path d="M1.0815 14.1999L14.2002 1.08117C14.4122 0.869212 14.7558 0.869212 14.9678 1.08117C15.1797 1.29314 15.1797 1.63679 14.9678 1.84876L1.84908 14.9674C1.63712 15.1794 1.29346 15.1794 1.0815 14.9674C0.869535 14.7555 0.869534 14.4118 1.0815 14.1999Z" fill="white"/>
</svg>
