<svg width="28" height="17" viewBox="0 0 28 17" fill="none" xmlns="http://www.w3.org/2000/svg">
<path d="M27.8515 14.4513C27.8176 14.3781 27.786 14.3174 27.7566 14.2687C27.2708 13.3924 26.3425 12.3167 24.9722 11.0413L24.9432 11.0121L24.9287 10.9978L24.914 10.9831H24.8993C24.2774 10.3893 23.8836 9.98997 23.7186 9.78554C23.4169 9.39612 23.3493 9.00193 23.5142 8.60253C23.6307 8.30077 24.0684 7.66349 24.8263 6.68983C25.2249 6.17381 25.5406 5.76025 25.7738 5.44867C27.4553 3.2095 28.1843 1.77863 27.9606 1.15552L27.8738 1.00991C27.8154 0.922246 27.6648 0.842048 27.4221 0.76891C27.1788 0.695924 26.8679 0.683854 26.4888 0.732494L22.2903 0.761545C22.2223 0.737404 22.1252 0.739654 21.9986 0.76891C21.8723 0.798165 21.809 0.812845 21.809 0.812845L21.736 0.849414L21.678 0.893348C21.6294 0.922399 21.5759 0.973494 21.5175 1.04653C21.4595 1.11931 21.4109 1.20472 21.3721 1.30206C20.915 2.48 20.3953 3.57519 19.812 4.58757C19.4524 5.19125 19.1221 5.71442 18.8205 6.1574C18.5193 6.60022 18.2666 6.92648 18.0627 7.13562C17.8584 7.34496 17.6741 7.51266 17.5086 7.63935C17.3433 7.76609 17.2171 7.81964 17.1297 7.80005C17.0422 7.78046 16.9597 7.76103 16.8816 7.74159C16.7456 7.65393 16.6363 7.53471 16.5538 7.38383C16.471 7.23295 16.4152 7.04304 16.3861 6.81427C16.3571 6.58534 16.3399 6.38842 16.335 6.22286C16.3305 6.05751 16.3326 5.82362 16.3424 5.52186C16.3525 5.21994 16.3571 5.01567 16.3571 4.90857C16.3571 4.53858 16.3643 4.13703 16.3787 3.70382C16.3934 3.27061 16.4053 2.92737 16.4153 2.67451C16.4252 2.42139 16.4298 2.15359 16.4298 1.87126C16.4298 1.58893 16.4126 1.36752 16.3787 1.20682C16.3452 1.04633 16.2938 0.890535 16.226 0.739501C16.1579 0.58862 16.0581 0.471905 15.9272 0.389049C15.796 0.306294 15.6329 0.240623 15.4388 0.191829C14.9237 0.0750631 14.2677 0.0118978 13.4706 0.00207775C11.6629 -0.0173577 10.5014 0.0995618 9.98634 0.352683C9.78224 0.45963 9.59756 0.605754 9.43242 0.790595C9.25744 1.00485 9.23303 1.12177 9.35935 1.141C9.94258 1.22851 10.3555 1.43785 10.5985 1.76881L10.686 1.94419C10.7541 2.07073 10.8222 2.29475 10.8902 2.61595C10.9582 2.93714 11.0021 3.29245 11.0214 3.68167C11.0699 4.39245 11.0699 5.00088 11.0214 5.50703C10.9727 6.01337 10.9267 6.40755 10.8829 6.68988C10.839 6.9722 10.7734 7.20098 10.686 7.37616C10.5985 7.55138 10.5402 7.65848 10.511 7.69735C10.4818 7.73622 10.4575 7.76072 10.4382 7.77034C10.3119 7.81882 10.1805 7.84353 10.0445 7.84353C9.90837 7.84353 9.74323 7.7753 9.54889 7.63894C9.35461 7.50259 9.15296 7.31529 8.94397 7.07675C8.73497 6.83815 8.49928 6.50473 8.23677 6.07643C7.97447 5.64814 7.70231 5.14194 7.42045 4.55786L7.18725 4.13427C7.04147 3.86176 6.84233 3.46497 6.58963 2.94425C6.33677 2.42333 6.11328 1.91944 5.91899 1.43268C5.84132 1.22825 5.72465 1.07262 5.56917 0.965515L5.4962 0.921581C5.44769 0.88271 5.36982 0.841435 5.263 0.797449C5.15603 0.753515 5.04441 0.722008 4.92768 0.702624L0.933199 0.731676C0.525014 0.731676 0.248056 0.824301 0.102225 1.0093L0.0438618 1.09681C0.0147057 1.14555 0 1.22339 0 1.33054C0 1.43764 0.0291561 1.56909 0.0875193 1.72473C0.670641 3.09749 1.30477 4.4214 1.98991 5.69667C2.67506 6.97195 3.27043 7.99922 3.77569 8.77756C4.28104 9.55646 4.79615 10.2916 5.32101 10.9826C5.84587 11.6738 6.19329 12.1168 6.36327 12.3114C6.53346 12.5064 6.66714 12.6521 6.76431 12.7495L7.12884 13.0999C7.36209 13.3335 7.70461 13.6134 8.15655 13.9395C8.6086 14.2657 9.10905 14.5869 9.65817 14.9036C10.2074 15.2197 10.8463 15.4777 11.5753 15.6772C12.3042 15.8769 13.0137 15.9571 13.7038 15.9184H15.3803C15.7203 15.889 15.9779 15.7819 16.153 15.5971L16.211 15.5239C16.25 15.4658 16.2866 15.3755 16.3203 15.254C16.3544 15.1323 16.3713 14.9983 16.3713 14.8525C16.3614 14.4339 16.3932 14.0567 16.4659 13.7209C16.5385 13.3852 16.6214 13.1321 16.714 12.9616C16.8066 12.7913 16.911 12.6476 17.0273 12.5311C17.1438 12.4143 17.2268 12.3436 17.2756 12.3192C17.324 12.2947 17.3626 12.2781 17.3918 12.2681C17.625 12.1903 17.8995 12.2657 18.2157 12.4946C18.5316 12.7234 18.8279 13.0059 19.1051 13.3416C19.3821 13.6777 19.7149 14.0546 20.1036 14.4732C20.4925 14.8919 20.8326 15.2031 21.1241 15.4078L21.4155 15.583C21.6102 15.7 21.8629 15.8071 22.1739 15.9044C22.4844 16.0017 22.7565 16.026 22.9901 15.9774L26.722 15.9191C27.0911 15.9191 27.3784 15.8579 27.5821 15.7364C27.7862 15.6147 27.9075 15.4806 27.9466 15.3348C27.9856 15.1889 27.9877 15.0233 27.954 14.8381C27.9195 14.6534 27.8854 14.5243 27.8515 14.4513Z" fill="#5672D2"/>
</svg>
