<svg width="10" height="19" viewBox="0 0 10 19" fill="none" xmlns="http://www.w3.org/2000/svg">
<path d="M9.11806 0H6.33124C3.50783 0 0.658866 2.01957 0.658866 6.53147C0.658866 8.86855 1.6814 10.6887 3.55583 11.7239L0.125092 17.739C-0.037572 18.0235 -0.0418245 18.3459 0.113676 18.6014C0.265499 18.851 0.543131 19 0.856047 19H2.59153C2.98578 19 3.29318 18.8154 3.4406 18.492L6.6573 12.3975H6.89206V18.2404C6.89206 18.6522 7.25076 19 7.67535 19H9.19143C9.66758 19 10 18.678 10 18.2168V0.831361C10.0001 0.341889 9.63743 0 9.11806 0ZM6.89206 9.69022H6.47793C4.87216 9.69022 3.91353 8.42056 3.91353 6.29386C3.91353 3.64948 5.12451 2.70731 6.25788 2.70731H6.89206V9.69022Z" fill="#D7143A"/>
</svg>
